<svg xmlns="http://www.w3.org/2000/svg" width="61.929" height="47.271" viewBox="0 0 61.929 47.271">
  <g id="Group_4232" data-name="Group 4232" transform="translate(-16278.278 -3385)">
    <g id="Union_16" data-name="Union 16" transform="translate(16283.855 3385)" fill="#fff">
      <path d="M 44.06489944458008 46.37070083618164 L 6.00029993057251 46.37070083618164 C 3.187989950180054 46.37070083618164 0.8999999165534973 44.08271026611328 0.8999999165534973 41.27040100097656 L 0.8999999165534973 6.000301361083984 C 0.8999999165534973 3.187991142272949 3.187989950180054 0.9000011682510376 6.00029993057251 0.9000011682510376 L 44.06489944458008 0.9000011682510376 C 46.8772087097168 0.9000011682510376 49.16519927978516 3.187991142272949 49.16519927978516 6.000301361083984 L 49.16519927978516 14.42426109313965 L 49.16519927978516 15.06099128723145 L 49.76562118530273 15.27294158935547 C 52.25566864013672 16.15192031860352 53.96060943603516 16.95543098449707 54.83309936523438 17.66117095947266 C 55.45169830322266 18.16154098510742 55.45169830322266 18.44291114807129 55.45169830322266 18.62910079956055 L 55.45169830322266 33.00725936889648 C 55.29903411865234 34.16653060913086 55.23725128173828 34.22070693969727 51.5992317199707 36.18038177490234 C 51.02590179443359 36.48921203613281 50.37607955932617 36.83925247192383 49.63375091552734 37.2447509765625 L 49.16519927978516 37.50069046020508 L 49.16519927978516 38.03459167480469 L 49.16519927978516 41.27040100097656 C 49.16519927978516 44.08271026611328 46.8772087097168 46.37070083618164 44.06489944458008 46.37070083618164 Z" stroke="none"/>
      <path d="M 44.06489944458008 45.47069931030273 C 46.38095092773438 45.47069931030273 48.26520156860352 43.58645248413086 48.26520156860352 41.27040100097656 L 48.26520156860352 38.03459167480469 L 48.26520156860352 36.96679306030273 L 49.20230102539062 36.45491027832031 C 49.94694137573242 36.04815292358398 50.59799957275391 35.69744110107422 51.17242050170898 35.38801956176758 C 52.80870056152344 34.50662231445312 53.88969039916992 33.92432022094727 54.32297134399414 33.54524230957031 C 54.45675659179688 33.42819213867188 54.48874664306641 33.40016555786133 54.55170059204102 32.94571304321289 L 54.55170059204102 18.63748741149902 C 54.49189758300781 18.55744552612305 54.27251815795898 18.30966377258301 53.62277984619141 17.92265129089355 C 52.71014022827148 17.37905120849609 51.31161117553711 16.77309036254883 49.46604156494141 16.12161064147949 L 48.26520156860352 15.69772148132324 L 48.26520156860352 14.42426109313965 L 48.26520156860352 6.000301361083984 C 48.26520156860352 3.684251070022583 46.38095092773438 1.80000114440918 44.06489944458008 1.80000114440918 L 6.00029993057251 1.80000114440918 C 3.684249877929688 1.80000114440918 1.799999952316284 3.684251070022583 1.799999952316284 6.000301361083984 L 1.799999952316284 41.27040100097656 C 1.799999952316284 43.58645248413086 3.684249877929688 45.47069931030273 6.00029993057251 45.47069931030273 L 44.06489944458008 45.47069931030273 M 44.06489944458008 47.27070236206055 L 6.00029993057251 47.27070236206055 C 2.686499834060669 47.27070236206055 -8.544922280862011e-08 44.58420181274414 -8.544922280862011e-08 41.27040100097656 L -8.544922280862011e-08 6.000301361083984 C -8.544922280862011e-08 2.686501264572144 2.686499834060669 1.181030256702797e-06 6.00029993057251 1.181030256702797e-06 L 44.06489944458008 1.181030256702797e-06 C 47.37870025634766 1.181030256702797e-06 50.06520080566406 2.686501264572144 50.06520080566406 6.000301361083984 L 50.06520080566406 14.42426109313965 C 55.90694808959961 16.48638153076172 56.35169982910156 17.72631072998047 56.35169982910156 18.62910079956055 L 56.35169982910156 33.06600189208984 C 56.09571075439453 35.02127075195312 55.65216827392578 34.98271942138672 50.06520080566406 38.03459167480469 L 50.06520080566406 41.27040100097656 C 50.06520080566406 44.58420181274414 47.37870025634766 47.27070236206055 44.06489944458008 47.27070236206055 Z" stroke="none" fill="#4360fd"/>
    </g>
    <g id="Group_4233" data-name="Group 4233" transform="translate(0 -2)">
      <g id="Group_4229" data-name="Group 4229" transform="translate(16293.963 3416.558)">
        <rect id="Rectangle_1124" data-name="Rectangle 1124" width="31.436" height="4.191" rx="2.096" transform="translate(0 3.138)" stroke-width="2" stroke="#4360fd" stroke-linecap="round" stroke-linejoin="round" fill="none"/>
        <g id="Group_4227" data-name="Group 4227" transform="translate(6.637 0)">
          <line id="Line_153" data-name="Line 153" y2="2.556" fill="none" stroke="#4360fd" stroke-linecap="round" stroke-width="2"/>
          <line id="Line_154" data-name="Line 154" y2="2.556" transform="translate(9.082)" fill="none" stroke="#4360fd" stroke-linecap="round" stroke-width="2"/>
          <line id="Line_155" data-name="Line 155" y2="2.556" transform="translate(17.93)" fill="none" stroke="#4360fd" stroke-linecap="round" stroke-width="2"/>
        </g>
      </g>
      <g id="Group_4228" data-name="Group 4228" transform="translate(16300.601 3424.703)">
        <line id="Line_153-2" data-name="Line 153" y2="2.594" transform="translate(0 0)" fill="none" stroke="#4360fd" stroke-linecap="round" stroke-width="2"/>
        <line id="Line_154-2" data-name="Line 154" y2="2.594" transform="translate(9.082 0)" fill="none" stroke="#4360fd" stroke-linecap="round" stroke-width="2"/>
        <line id="Line_155-2" data-name="Line 155" y2="2.594" transform="translate(17.93 0)" fill="none" stroke="#4360fd" stroke-linecap="round" stroke-width="2"/>
      </g>
    </g>
    <g id="Group_4230" data-name="Group 4230" transform="translate(16314.546 3391.52)">
      <circle id="Ellipse_190" data-name="Ellipse 190" cx="1.717" cy="1.717" r="1.717" transform="translate(0 0)" fill="#4360fd"/>
      <circle id="Ellipse_193" data-name="Ellipse 193" cx="1.717" cy="1.717" r="1.717" transform="translate(0 8.627)" fill="#4360fd"/>
      <circle id="Ellipse_191" data-name="Ellipse 191" cx="1.717" cy="1.717" r="1.717" transform="translate(9.392 0)" fill="#4360fd"/>
      <circle id="Ellipse_192" data-name="Ellipse 192" cx="1.717" cy="1.717" r="1.717" transform="translate(9.392 8.627)" fill="#4360fd"/>
    </g>
    <rect id="Rectangle_1125" data-name="Rectangle 1125" width="8.182" height="9" rx="2" transform="translate(16293.278 3393.898)" fill="#ffda0b"/>
    <path id="Rectangle_1126" data-name="Rectangle 1126" d="M4,0h7a0,0,0,0,1,0,0V13a0,0,0,0,1,0,0H4A4,4,0,0,1,0,9V4A4,4,0,0,1,4,0Z" transform="translate(16278.278 3391.898)" fill="#4360fd"/>
  </g>
</svg>
