<svg xmlns="http://www.w3.org/2000/svg" width="42.648" height="45.271" viewBox="0 0 42.648 45.271">
  <g id="_22_Atom" data-name="22 Atom" transform="translate(-18.455 -14)">
    <circle id="Ellipse_104" data-name="Ellipse 104" cx="3.527" cy="3.527" r="3.527" transform="translate(36.157 33.108)" fill="#ff8900"/>
    <path id="Path_8306" data-name="Path 8306" d="M54.221,59.271c-10.783,0-10.788-45.271,0-45.271a.905.905,0,0,1,0,1.811c-3,0-6.338,8.552-6.338,20.824S51.224,57.46,54.221,57.46a.905.905,0,1,1,0,1.811Z" transform="translate(-14.536 0)" fill="#4360fd"/>
    <path id="Path_8307" data-name="Path 8307" d="M25.657,63.278c-4.59,0-6.007-2.662-4.753-3.391a.905.905,0,0,1,1.236.33c1.5,2.6,10.575,1.218,21.2-4.921S59.71,41.992,58.211,39.4a.905.905,0,0,1,1.566-.905C64.087,45.953,38.623,63.278,25.657,63.278Z" transform="translate(-0.491 -13.175)" fill="#4360fd"/>
    <path id="Path_8308" data-name="Path 8308" d="M58.213,58.052c1.5-2.594-4.237-9.765-14.867-15.9s-19.706-7.519-21.2-4.925a.905.905,0,0,1-1.566-.905c5.392-9.339,44.6,13.291,39.2,22.635a.905.905,0,0,1-1.566-.905Z" transform="translate(-0.493 -11.004)" fill="#4360fd"/>
    <path id="Path_8309" data-name="Path 8309" d="M103.974,76.088a13.581,13.581,0,0,0-2.236-3.8,2.281,2.281,0,0,0-.693,2.132,12.469,12.469,0,0,1,.779,1.286,2.191,2.191,0,0,0,2.15.38Z" transform="translate(-44.566 -31.902)" fill="#4360fd"/>
    <path id="Path_8310" data-name="Path 8310" d="M20.082,38.492a.905.905,0,0,1,1.566.905c-1.5,2.594,4.237,9.765,14.867,15.9s19.706,7.519,21.2,4.925a.905.905,0,0,1,1.566.905C53.935,70.395,14.668,47.868,20.082,38.492Z" transform="translate(0 -13.175)" fill="#4360fd"/>
    <path id="Path_8311" data-name="Path 8311" d="M62.905,59.271a.905.905,0,1,1,0-1.811c3,0,6.338-8.552,6.338-20.824S65.9,15.811,62.905,15.811a.905.905,0,1,1,0-1.811C73.689,14,73.693,59.271,62.905,59.271Z" transform="translate(-23.221 0)" fill="#4360fd"/>
    <path id="Path_8312" data-name="Path 8312" d="M72,24.564c.2.453.389.964.57,1.5a2.236,2.236,0,0,0,2.146.729,23.006,23.006,0,0,0-1.6-4.151A2.264,2.264,0,0,0,72,24.564Z" transform="translate(-28.694 -4.729)" fill="#4360fd"/>
    <path id="Path_8313" data-name="Path 8313" d="M20.086,58.956c-5.392-9.339,33.808-31.979,39.2-22.635a.905.905,0,0,1-1.566.905c-1.5-2.6-10.575-1.213-21.2,4.925S20.154,55.456,21.652,58.05a.905.905,0,0,1-1.566.905Z" transform="translate(-0.004 -11.003)" fill="#4360fd"/>
    <path id="Path_8314" data-name="Path 8314" d="M23.705,73a2.264,2.264,0,0,0-.847.168,14.94,14.94,0,0,0-1.4,2.232,2.264,2.264,0,0,0,1.191,1.852,12.259,12.259,0,0,1,2.336-3.857A2.263,2.263,0,0,0,23.705,73Z" transform="translate(-1.034 -32.29)" fill="#4360fd"/>
    <g id="Path_8315" data-name="Path 8315" transform="translate(-0.465 -3.776)" fill="#ffda0b">
      <path d="M 57.80443954467773 48.85762023925781 C 56.14277648925781 48.85762023925781 54.79091644287109 47.50576019287109 54.79091644287109 45.84408950805664 C 54.79091644287109 44.18242263793945 56.14277648925781 42.83056259155273 57.80443954467773 42.83056259155273 C 59.46610641479492 42.83056259155273 60.81796646118164 44.18242263793945 60.81796646118164 45.84408950805664 C 60.81796646118164 47.50576019287109 59.46610641479492 48.85762023925781 57.80443954467773 48.85762023925781 Z M 22.68352890014648 48.85762023925781 C 21.02185821533203 48.85762023925781 19.66999816894531 47.50576019287109 19.66999816894531 45.84408950805664 C 19.66999816894531 44.18242263793945 21.02185821533203 42.83056259155273 22.68352890014648 42.83056259155273 C 24.3451976776123 42.83056259155273 25.69705772399902 44.18242263793945 25.69705772399902 45.84408950805664 C 25.69705772399902 47.50576019287109 24.3451976776123 48.85762023925781 22.68352890014648 48.85762023925781 Z M 45.12867736816406 26.17706108093262 C 43.46700668334961 26.17706108093262 42.11514663696289 24.8252010345459 42.11514663696289 23.16353034973145 C 42.11514663696289 21.50186157226562 43.46700668334961 20.15000152587891 45.12867736816406 20.15000152587891 C 46.79034805297852 20.15000152587891 48.14220809936523 21.50186157226562 48.14220809936523 23.16353034973145 C 48.14220809936523 24.8252010345459 46.79034805297852 26.17706108093262 45.12867736816406 26.17706108093262 Z" stroke="none"/>
      <path d="M 57.80443954467773 48.10762023925781 C 59.05455780029297 48.10762023925781 60.06796646118164 47.09420013427734 60.06796646118164 45.84408950805664 C 60.06796646118164 44.5939826965332 59.05455780029297 43.58056259155273 57.80443954467773 43.58056259155273 C 56.55432891845703 43.58056259155273 55.54091644287109 44.5939826965332 55.54091644287109 45.84408950805664 C 55.54091644287109 47.09420013427734 56.55432891845703 48.10762023925781 57.80443954467773 48.10762023925781 M 22.68352890014648 48.10762023925781 C 23.93363761901855 48.10762023925781 24.94705772399902 47.09420013427734 24.94705772399902 45.84408950805664 C 24.94705772399902 44.5939826965332 23.93363761901855 43.58056259155273 22.68352890014648 43.58056259155273 C 21.43341827392578 43.58056259155273 20.41999816894531 44.5939826965332 20.41999816894531 45.84408950805664 C 20.41999816894531 47.09420013427734 21.43341827392578 48.10762023925781 22.68352890014648 48.10762023925781 M 45.12867736816406 25.42706108093262 C 46.37878799438477 25.42706108093262 47.39220809936523 24.41364097595215 47.39220809936523 23.16353034973145 C 47.39220809936523 21.91342163085938 46.37878799438477 20.90000152587891 45.12867736816406 20.90000152587891 C 43.87856674194336 20.90000152587891 42.86514663696289 21.91342163085938 42.86514663696289 23.16353034973145 C 42.86514663696289 24.41364097595215 43.87856674194336 25.42706108093262 45.12867736816406 25.42706108093262 M 57.80443954467773 49.60762023925781 C 55.72922897338867 49.60762023925781 54.04091644287109 47.9193115234375 54.04091644287109 45.84408950805664 C 54.04091644287109 43.76887130737305 55.72922897338867 42.08056259155273 57.80443954467773 42.08056259155273 C 59.87965774536133 42.08056259155273 61.56796646118164 43.76887130737305 61.56796646118164 45.84408950805664 C 61.56796646118164 47.9193115234375 59.87965774536133 49.60762023925781 57.80443954467773 49.60762023925781 Z M 22.68352890014648 49.60762023925781 C 20.60830879211426 49.60762023925781 18.91999816894531 47.9193115234375 18.91999816894531 45.84408950805664 C 18.91999816894531 43.76887130737305 20.60830879211426 42.08056259155273 22.68352890014648 42.08056259155273 C 24.75874710083008 42.08056259155273 26.44705772399902 43.76887130737305 26.44705772399902 45.84408950805664 C 26.44705772399902 47.9193115234375 24.75874710083008 49.60762023925781 22.68352890014648 49.60762023925781 Z M 45.12867736816406 26.92706108093262 C 43.05345916748047 26.92706108093262 41.36514663696289 25.23875045776367 41.36514663696289 23.16353034973145 C 41.36514663696289 21.08831024169922 43.05345916748047 19.40000152587891 45.12867736816406 19.40000152587891 C 47.20389938354492 19.40000152587891 48.89220809936523 21.08831024169922 48.89220809936523 23.16353034973145 C 48.89220809936523 25.23875045776367 47.20389938354492 26.92706108093262 45.12867736816406 26.92706108093262 Z" stroke="none" fill="#4360fd"/>
    </g>
  </g>
</svg>
