<svg xmlns="http://www.w3.org/2000/svg" width="52.411" height="51.552" viewBox="0 0 52.411 51.552">
  <g id="circuit" transform="translate(0 -4)">
    <path id="Path_9290" data-name="Path 9290" d="M57.746,343.954l-4.01-10.31a2.578,2.578,0,0,0-2.4-1.644H14.705a2.578,2.578,0,0,0-2.4,1.644l-4.01,10.31a2.578,2.578,0,0,0,2.4,3.512H55.343a2.578,2.578,0,0,0,2.4-3.512Zm-42.77-.784,2.578-7.733H48.485l2.578,7.733Z" transform="translate(-7.244 -292.773)" fill="#42c0fa"/>
    <path id="Path_9291" data-name="Path 9291" d="M105.508,364H74.578L72,371.733h36.086Z" transform="translate(-64.267 -321.336)" fill="#f1f3f5"/>
    <g id="Group_4225" data-name="Group 4225" transform="translate(0.859 5.162)">
      <circle id="Ellipse_183" data-name="Ellipse 183" cx="2.5" cy="2.5" r="2.5" transform="translate(22.141 0.018)" fill="#ffda0b"/>
      <ellipse id="Ellipse_184" data-name="Ellipse 184" cx="2" cy="2.5" rx="2" ry="2.5" transform="translate(33.141 2.018)" fill="#ffda0b"/>
      <circle id="Ellipse_185" data-name="Ellipse 185" cx="2.5" cy="2.5" r="2.5" transform="translate(43.141 0.018)" fill="#ffda0b"/>
      <circle id="Ellipse_186" data-name="Ellipse 186" cx="2.5" cy="2.5" r="2.5" transform="translate(45.141 23.018)" fill="#ffda0b"/>
      <circle id="Ellipse_187" data-name="Ellipse 187" cx="2.5" cy="2.5" r="2.5" transform="translate(0.141 0.018)" fill="#ffda0b"/>
      <circle id="Ellipse_188" data-name="Ellipse 188" cx="2.5" cy="2.5" r="2.5" transform="translate(14.141 3.018)" fill="#ffda0b"/>
      <ellipse id="Ellipse_189" data-name="Ellipse 189" cx="2.5" cy="3" rx="2.5" ry="3" transform="translate(6.141 8.018)" fill="#ffda0b"/>
      <path id="Path_9292" data-name="Path 9292" d="M8,254.578a2.578,2.578,0,1,0,4.4-1.822l-.1.1.1-.1A2.577,2.577,0,0,0,8,254.578Z" transform="translate(-8 -226.527)" fill="#ffda0b"/>
    </g>
    <g id="Group_4226" data-name="Group 4226" transform="translate(0 4)">
      <path id="Path_9293" data-name="Path 9293" d="M48.974,27.2a3.433,3.433,0,0,0-3.315,2.578H42.1a.857.857,0,0,0-.607.252l-4.548,4.548V31.85L47,21.791a.855.855,0,0,0,.252-.607V10.752a3.437,3.437,0,1,0-1.718,0V20.828l-.859.859L42.1,19.11v-3.94H40.382v4.3a.855.855,0,0,0,.252.607L43.463,22.9l-4.8,4.8-1.718-1.718V22.9H35.227v3.437a.855.855,0,0,0,.252.607l1.97,1.97-1.97,1.97a.855.855,0,0,0-.252.607v6.874H31.79V24.117l4.9-4.9a.855.855,0,0,0,.252-.607V13.329a3.437,3.437,0,1,0-1.718,0v4.921l-4.9,4.9a.855.855,0,0,0-.252.607V38.368H26.635V10.752a3.437,3.437,0,1,0-1.718,0V28.561l-2.578-2.578V19.465H20.621v6.874a.855.855,0,0,0,.252.607l4.044,4.044v7.377H21.48v-4.3a.855.855,0,0,0-.252-.607L13.244,25.48l4.548-4.548a.855.855,0,0,0,.252-.607V14.188a3.437,3.437,0,1,0-1.718,0v5.781l-4.3,4.3L10.31,22.547v-3.2a3.437,3.437,0,1,0-1.718,0V22.9a.855.855,0,0,0,.252.607L19.761,34.427v3.94H16.325V35.79a.855.855,0,0,0-.252-.607L4.3,23.406V10.752a3.437,3.437,0,1,0-1.718,0v13.01a.855.855,0,0,0,.252.607l4.548,4.548h-.5a.857.857,0,0,0-.607.252L5.171,30.263a3.391,3.391,0,0,0-1.735-.487,3.437,3.437,0,1,0,3.437,3.437,3.391,3.391,0,0,0-.487-1.735l.843-.843H9.1l5.511,5.511v2.222H7.461a3.415,3.415,0,0,0-3.2,2.192L.248,50.87a3.437,3.437,0,0,0,3.2,4.682H48.1a3.437,3.437,0,0,0,3.2-4.682l-4.01-10.31a3.417,3.417,0,0,0-3.2-2.192H36.945V37l5.511-5.511h3.2a3.431,3.431,0,1,0,3.315-4.3Zm-4.3-19.761A1.718,1.718,0,1,1,46.4,9.155,1.72,1.72,0,0,1,44.678,7.437Zm-10.31,2.578a1.718,1.718,0,1,1,1.718,1.718A1.72,1.72,0,0,1,34.368,10.014ZM24.057,7.437a1.718,1.718,0,1,1,1.718,1.718A1.72,1.72,0,0,1,24.057,7.437Zm-8.592,3.437a1.718,1.718,0,1,1,1.718,1.718A1.72,1.72,0,0,1,15.465,10.874ZM7.733,16.029a1.718,1.718,0,1,1,1.718,1.718A1.72,1.72,0,0,1,7.733,16.029ZM1.718,7.437A1.718,1.718,0,1,1,3.437,9.155,1.72,1.72,0,0,1,1.718,7.437ZM3.437,34.931a1.718,1.718,0,1,1,1.718-1.718A1.72,1.72,0,0,1,3.437,34.931Zm31.79,5.155V41.8H31.79V40.086Zm1.718,6.874V43.523h3.676l2,6.014H8.924l2-6.014h3.677V46.96h1.718V43.523h3.437V46.96H21.48V43.523h3.437V46.96h1.718V43.523h3.437V46.96H31.79V43.523h3.437V46.96Zm-6.874-6.874V41.8H26.635V40.086Zm-5.155,0V41.8H21.48V40.086Zm-5.155,0V41.8H16.325V40.086Zm24.329,0a1.709,1.709,0,0,1,1.6,1.1l4.01,10.31a1.718,1.718,0,0,1-1.6,2.341H3.452a1.719,1.719,0,0,1-1.6-2.341l4.01-10.31a1.709,1.709,0,0,1,1.6-1.1h7.145V41.8h-4.3a.859.859,0,0,0-.815.588L6.917,50.125a.859.859,0,0,0,.815,1.131H43.819a.859.859,0,0,0,.815-1.131l-2.578-7.733a.859.859,0,0,0-.815-.588h-4.3V40.086Zm4.884-7.733a1.718,1.718,0,1,1,1.718-1.718A1.72,1.72,0,0,1,48.974,32.353Z" transform="translate(0 -4)" fill="#4360fd"/>
      <path id="Path_9294" data-name="Path 9294" d="M192,100h1.718v3.437H192Z" transform="translate(-171.379 -89.69)" fill="#4360fd"/>
      <path id="Path_9295" data-name="Path 9295" d="M376,76h1.718v1.718H376Z" transform="translate(-335.618 -68.267)" fill="#4360fd"/>
    </g>
  </g>
</svg>
