<svg xmlns="http://www.w3.org/2000/svg" width="68.696" height="61.557" viewBox="0 0 68.696 61.557">
  <g id="Page-1" transform="translate(10 6)">
    <g id="_029---Education" data-name="029---Education" transform="translate(0 0)">
      <g id="Rectangle_1132" data-name="Rectangle 1132" transform="translate(-10 -6)" fill="#fff" stroke="#4360fd" stroke-width="1.6">
        <rect width="64.8" height="56" rx="7" stroke="none"/>
        <rect x="0.8" y="0.8" width="63.2" height="54.4" rx="6.2" fill="none"/>
      </g>
      <path id="Shape" d="M42.79,35.119l-2.814.422a.321.321,0,0,0,.028.136.215.215,0,0,1-.028.049,5.9,5.9,0,0,0-.938,3.223c0,1.96-2.907,3.79-1.33,4.869H-7.186A2.869,2.869,0,0,1-10,40.9V2.921A2.869,2.869,0,0,1-7.186,0H39.976A2.869,2.869,0,0,1,42.79,2.921Z" transform="translate(6 0)" fill="#4360fd" stroke="#4360fd" stroke-width="1.6"/>
      <path id="Shape-2" data-name="Shape" d="M43.069,36.58a.2.2,0,0,0-.039.058" transform="translate(-1.13 -0.961)" fill="#3b97d3"/>
      <path id="Shape-3" data-name="Shape" d="M52.969,36.638a.2.2,0,0,0-.039-.058" transform="translate(-1.39 -0.961)" fill="#3b97d3"/>
      <g id="Group_4268" data-name="Group 4268" transform="translate(25.317 6.003)">
        <path id="Shape-4" data-name="Shape" d="M33.219,10.715a.965.965,0,0,1-.478-.126L28.125,7.98a.974.974,0,0,1,.958-1.7L33.7,8.894a.974.974,0,0,1-.48,1.821Z" transform="translate(-26.043 -6.165)" fill="#fff"/>
        <path id="Shape-5" data-name="Shape" d="M39.179,18.938a.974.974,0,0,1-.8-.424L34.87,13.392a.974.974,0,0,1,1.607-1.1l3.505,5.122a.974.974,0,0,1-.8,1.524Z" transform="translate(-26.229 -6.315)" fill="#fff"/>
        <path id="Shape-6" data-name="Shape" d="M26.974,18.685A.974.974,0,0,1,26,17.711V7.974a.974.974,0,0,1,1.947,0v9.737A.974.974,0,0,1,26.974,18.685Z" transform="translate(-26 -6.187)" fill="#fff"/>
        <path id="Shape-7" data-name="Shape" d="M37.737,20.947H28.974a.974.974,0,1,1,0-1.947h8.764a.974.974,0,1,1,0,1.947Z" transform="translate(-26.053 -6.502)" fill="#fff"/>
        <path id="Shape-8" data-name="Shape" d="M28.674,37.731a.974.974,0,0,1-.7-1.645l5.453-5.726A.974.974,0,1,1,34.833,31.7L29.38,37.429A.974.974,0,0,1,28.674,37.731Z" transform="translate(-26.045 -6.792)" fill="#fff"/>
        <path id="Shape-9" data-name="Shape" d="M32.237,26.791a.974.974,0,0,1-.72-.318l-3.954-4.343A.974.974,0,0,1,29,20.819l3.953,4.343a.974.974,0,0,1-.72,1.629Z" transform="translate(-26.035 -6.541)" fill="#fff"/>
        <path id="Shape-10" data-name="Shape" d="M28.284,19.29a.974.974,0,0,1-.725-1.624l5.24-5.842a.974.974,0,0,1,1.45,1.3l-5.24,5.842a.974.974,0,0,1-.724.324Z" transform="translate(-26.034 -6.305)" fill="#fff"/>
        <path id="Shape-11" data-name="Shape" d="M26.974,36.58A.974.974,0,0,1,26,35.606V21.974a.974.974,0,0,1,1.947,0V35.606A.974.974,0,0,1,26.974,36.58Z" transform="translate(-26 -6.554)" fill="#fff"/>
        <path id="Shape-12" data-name="Shape" d="M38.624,24.326a.974.974,0,0,1-.9-1.35l.632-1.509a.974.974,0,1,1,1.8.752l-.633,1.509a.974.974,0,0,1-.9.6Z" transform="translate(-26.306 -6.55)" fill="#fff"/>
      </g>
      <path id="Shape-13" data-name="Shape" d="M20.561,6.746V35.218a4.8,4.8,0,0,1-9.241,1.85A4.068,4.068,0,0,1,7.25,33a3.982,3.982,0,0,1,.458-1.86,3.689,3.689,0,0,1-2.016-6.573,4.8,4.8,0,0,1,.243-7.011,4.375,4.375,0,0,1-.166-1.188,4.426,4.426,0,0,1,4.255-4.43.01.01,0,0,0-.01-.01,3.408,3.408,0,0,1-.545-1.85v-.019A3.341,3.341,0,0,1,11.661,6.95h.01a27.152,27.152,0,0,1,2.3-1.519c6.592-3.856,6.592,1.315,6.592,1.315Z" transform="translate(-0.113 -0.105)" fill="#fff"/>
      <path id="Union_17" data-name="Union 17" d="M-14896-3865.052a3.093,3.093,0,0,0-.917-2.177,4.835,4.835,0,0,1-1.167-5.035,4.6,4.6,0,0,1,3.962-3.023,5.64,5.64,0,0,1,.665-.037l0,0a.977.977,0,0,1,.976.976.976.976,0,0,1-.976.973,4.527,4.527,0,0,0-.453.022,2.673,2.673,0,0,0-2.338,1.743,2.908,2.908,0,0,0,.729,3.019,5.036,5.036,0,0,1,1.47,3.542.974.974,0,0,1-.976.973A.973.973,0,0,1-14896-3865.052Zm-10-9.236a3.66,3.66,0,0,1,1.16-1.579,3.8,3.8,0,0,0,2.7,1.111.971.971,0,0,1,.973.973.971.971,0,0,1-.973.973h-.03A5.694,5.694,0,0,1-14906-3874.288Zm5.66-2.454a.975.975,0,0,1,.572-1.093,2.358,2.358,0,0,0,1.138-1.07,5.769,5.769,0,0,1-2.648-1.65.969.969,0,0,1,.074-1.365.971.971,0,0,1,1.365.056,3.839,3.839,0,0,0,2.75,1.257,3.832,3.832,0,0,0,2.8-1.122.971.971,0,0,1,1.377,0,.974.974,0,0,1,0,1.377,5.745,5.745,0,0,1-3.7,1.676,4.312,4.312,0,0,1-2.395,2.634.952.952,0,0,1-.381.079A.978.978,0,0,1-14900.341-3876.742Zm3.008-9.633a3.448,3.448,0,0,0-3.184-2.132,3.376,3.376,0,0,1-.546-1.848v-.019a.775.775,0,0,1,.205-.06,2.049,2.049,0,0,1,.341-.019,5.4,5.4,0,0,1,4.982,3.318.974.974,0,0,1,0,.748.958.958,0,0,1-.527.528.9.9,0,0,1-.37.079A.985.985,0,0,1-14897.333-3886.375Zm.983-5.772a2.364,2.364,0,0,0-2.144-1.373,1.567,1.567,0,0,0-.37.037c.741-.542,1.508-1.051,2.3-1.519a4.226,4.226,0,0,1,1.986,2.058.978.978,0,0,1-.486,1.294,1.023,1.023,0,0,1-.4.079A.964.964,0,0,1-14896.35-3892.147Z" transform="translate(14910.421 3900.326)" fill="#4360fd"/>
      <ellipse id="Oval" cx="2.5" cy="2" rx="2.5" ry="2" transform="translate(24 4)" fill="#ffda0b"/>
      <circle id="Oval-2" data-name="Oval" cx="2" cy="2" r="2" transform="translate(32 9)" fill="#ffda0b"/>
      <ellipse id="Oval-3" data-name="Oval" cx="2.5" cy="1.5" rx="2.5" ry="1.5" transform="translate(24 18)" fill="#ffda0b"/>
      <ellipse id="Oval-4" data-name="Oval" cx="2" cy="1.5" rx="2" ry="1.5" transform="translate(37 18)" fill="#ffda0b"/>
      <ellipse id="Oval-5" data-name="Oval" cx="2.5" cy="1.5" rx="2.5" ry="1.5" transform="translate(24 35)" fill="#ffda0b"/>
    </g>
    <g id="award" transform="translate(-26.578 27.855)">
      <path id="Path_9317" data-name="Path 9317" d="M68.638,277.561l-4.269,9.155,3.67.191L70.55,289.6l4.589-9.841Z" transform="translate(0 -263.309)" fill="#42c0fa" stroke="#4360fd" stroke-width="1.6"/>
      <path id="Path_9318" data-name="Path 9318" d="M244.371,277.561l4.269,9.155-3.67.191-2.511,2.692-4.589-9.841Z" transform="translate(-164.592 -263.309)" fill="#42c0fa" stroke="#4360fd" stroke-width="1.6"/>
      <g id="Group_4264" data-name="Group 4264" transform="translate(64.691 0)">
        <path id="Path_9319" data-name="Path 9319" d="M89.679,9.517l-1.324,2.2.05,2.564-2.247,1.237-1.237,2.247-2.564-.05-2.2,1.324-2.2-1.324-2.564.05-1.237-2.247-2.247-1.237.05-2.564-1.324-2.2,1.324-2.2-.05-2.564,2.247-1.237L75.4,1.274l2.564.05L80.161,0l2.2,1.324,2.564-.05,1.237,2.247L88.4,4.758l-.05,2.564Z" transform="translate(-70.644 0)" fill="#ffda0b" stroke="#4360fd" stroke-width="1.6"/>
        <g id="Path_9321" data-name="Path 9321" transform="translate(-143.565 -72.921)" fill="#fff">
          <path d="M 153.0824127197266 87.07463836669922 L 152.2093658447266 86.54820251464844 L 152.0115661621094 86.42893218994141 L 151.7806243896484 86.43344879150391 L 150.7666625976562 86.45326995849609 L 150.2753601074219 85.56058502197266 L 150.1634979248047 85.35733795166016 L 149.9602508544922 85.24546813964844 L 149.067626953125 84.754150390625 L 149.0874481201172 83.74021911621094 L 149.0919647216797 83.50926208496094 L 148.9726715087891 83.31146240234375 L 148.4462127685547 82.43840789794922 L 148.9726867675781 81.5653076171875 L 149.0919647216797 81.36750793457031 L 149.0874481201172 81.13656616210938 L 149.067626953125 80.12261199951172 L 149.9602355957031 79.63133239746094 L 150.1634826660156 79.51947784423828 L 150.2753601074219 79.31621551513672 L 150.7666625976562 78.42356872558594 L 151.7806396484375 78.44338226318359 L 152.0115661621094 78.44789886474609 L 152.2093505859375 78.32862854003906 L 153.0824279785156 77.80218505859375 L 153.9555053710938 78.32862854003906 L 154.1532897949219 78.44789886474609 L 154.3842163085938 78.44338226318359 L 155.398193359375 78.42356872558594 L 155.8894653320312 79.31620788574219 L 156.0013275146484 79.51946258544922 L 156.2045745849609 79.63133239746094 L 157.0972290039062 80.12264251708984 L 157.0774078369141 81.13656616210938 L 157.0728912353516 81.36750793457031 L 157.1921844482422 81.56531524658203 L 157.7186584472656 82.43840026855469 L 157.1921844482422 83.31145477294922 L 157.0728912353516 83.50926208496094 L 157.0774078369141 83.74021911621094 L 157.0972290039062 84.75419616699219 L 156.2046356201172 85.24545288085938 L 156.0013885498047 85.35731506347656 L 155.8895263671875 85.56056213378906 L 155.3982086181641 86.45321655273438 L 154.3842315673828 86.43339538574219 L 154.1532745361328 86.42888641357422 L 153.9554748535156 86.54816436767578 L 153.0824127197266 87.07463836669922 Z" stroke="none"/>
          <path d="M 153.0823974609375 86.14044952392578 L 153.5423583984375 85.86308288574219 L 153.9379730224609 85.62452697753906 L 154.3998565673828 85.63355255126953 L 154.9304656982422 85.64392852783203 L 155.1886749267578 85.17481231689453 L 155.4124145507812 84.76831817626953 L 155.8188934326172 84.54459381103516 L 156.2879333496094 84.28644561767578 L 156.2775726318359 83.75584411621094 L 156.2685394287109 83.29395294189453 L 156.5070953369141 82.89833831787109 L 156.7844543457031 82.43840026855469 L 156.5070953369141 81.97842407226562 L 156.2685394287109 81.58281707763672 L 156.2775726318359 81.12093353271484 L 156.2879333496094 80.59038543701172 L 155.8188323974609 80.33218383789062 L 155.4123229980469 80.10844421386719 L 155.1885986328125 79.70193481445312 L 154.9304351806641 79.23285675048828 L 154.3998413085938 79.24322509765625 L 153.9380035400391 79.25225830078125 L 153.5424041748047 79.01372528076172 L 153.0824279785156 78.73637390136719 L 152.6224517822266 79.01372528076172 L 152.2268524169922 79.25225830078125 L 151.7650146484375 79.24322509765625 L 151.2344055175781 79.23285675048828 L 150.9762115478516 79.70196533203125 L 150.7524719238281 80.10846710205078 L 150.3459777832031 80.33219909667969 L 149.8769226074219 80.59035491943359 L 149.8872833251953 81.12093353271484 L 149.8963165283203 81.58280181884766 L 149.6577758789062 81.97840881347656 L 149.3804016113281 82.43840026855469 L 149.6577606201172 82.89834594726562 L 149.8963165283203 83.29396820068359 L 149.8872833251953 83.75584411621094 L 149.8769226074219 84.28641510009766 L 150.3460235595703 84.54461669921875 L 150.7525024414062 84.76835632324219 L 150.9762268066406 85.17485809326172 L 151.2344207763672 85.64397430419922 L 151.7649993896484 85.63360595703125 L 152.2268524169922 85.62457275390625 L 152.6224517822266 85.86311340332031 L 153.0823974609375 86.14044952392578 M 153.0824279785156 88.00882720947266 L 151.7962646484375 87.23329925537109 L 150.2989196777344 87.26256561279297 L 149.5744934082031 85.94631195068359 L 148.2583312988281 85.22187805175781 L 148.28759765625 83.72457885742188 L 147.5120239257812 82.43841552734375 L 148.28759765625 81.15220642089844 L 148.2583312988281 79.65486907958984 L 149.5744934082031 78.93047332763672 L 150.2989196777344 77.61427307128906 L 151.7962646484375 77.64353179931641 L 153.0824279785156 76.86801910400391 L 154.3685913085938 77.64353179931641 L 155.8659362792969 77.61427307128906 L 156.59033203125 78.93047332763672 L 157.9065246582031 79.6549072265625 L 157.8772583007812 81.15220642089844 L 158.6528472900391 82.43841552734375 L 157.8772583007812 83.72457885742188 L 157.9065246582031 85.22193908691406 L 156.5903778076172 85.94631195068359 L 155.8659362792969 87.26251220703125 L 154.3685913085938 87.23324584960938 L 153.0824279785156 88.00882720947266 Z" stroke="none" fill="#4360fd"/>
        </g>
      </g>
    </g>
  </g>
</svg>
