<svg xmlns="http://www.w3.org/2000/svg" width="52.481" height="52.61" viewBox="0 0 52.481 52.61">
  <g id="race" transform="translate(0 -3.245)">
    <path id="Path_9354" data-name="Path 9354" d="M15.713,26.949a9.718,9.718,0,0,0,3.526,5.244c2.881,2.193,5.865,9.431,6.586,13.119l.159.811a.773.773,0,1,0,1.517-.3l-.159-.811c-.794-4.06-3.984-11.63-7.167-14.052a8.184,8.184,0,0,1-2.969-4.417l-1.332-4.933,4.668-1.887a8.1,8.1,0,0,0,6.493,4.819l5.758,8.849a3.84,3.84,0,1,0,6.2,0l5.752-8.84a8.1,8.1,0,0,0,6.546-4.807l4.671,1.888L54.489,27.07a7.9,7.9,0,0,1-2.828,3.892c-2.115,1.61-4.826,8.767-5.949,11.239a.773.773,0,1,0,1.408.64c.379-.833,1.831-6.627,2.531-7.627A14.051,14.051,0,0,1,52.6,32.193a9.5,9.5,0,0,0,3.384-4.72L60.749,9.815a4.389,4.389,0,0,0-.474-3.906,3.987,3.987,0,0,0-3.011-1.657c-.08,0-.16-.007-.239-.007A4.008,4.008,0,0,0,53.162,7.2L50.189,18.219a6.549,6.549,0,0,1-5.934,4.821h0l-.165.008c-.071,0-.141,0-.212,0h-4.1a.879.879,0,0,1-.147-.215,7.754,7.754,0,0,0,.85-.636,6.274,6.274,0,0,0,2.1-3.94,1.856,1.856,0,0,0,1.545-1.828v-1.2a1.847,1.847,0,0,0-.582-1.349V9.7a4.094,4.094,0,0,0-4.089-4.089H32.334A4.094,4.094,0,0,0,28.245,9.7v4.185a1.846,1.846,0,0,0-.582,1.349v1.2a1.856,1.856,0,0,0,1.545,1.828,6.274,6.274,0,0,0,2.1,3.94,7.787,7.787,0,0,0,.776.589.9.9,0,0,1-.169.263H27.959c-.074,0-.148,0-.222,0l-.2-.01a6.549,6.549,0,0,1-5.89-4.819L18.736,7.434a4.311,4.311,0,0,0-4.155-3.182,3.825,3.825,0,0,0-3.693,4.822ZM54.655,7.607a2.459,2.459,0,0,1,2.369-1.816c.049,0,.1,0,.148,0A2.447,2.447,0,0,1,59.02,6.813a2.791,2.791,0,0,1,.236,2.6L56.363,20.128l-4.587-1.854ZM35.892,37.952A2.292,2.292,0,0,1,34.314,34c.042-.04.085-.079.13-.115l.029-.023c.047-.037.094-.072.144-.105l.023-.014c.053-.035.107-.068.163-.1l0,0a2.285,2.285,0,0,1,.38-.162h0q.1-.032.2-.055h0q.1-.023.206-.036h0q.1-.014.21-.017h0l.084,0,.081,0h0q.106,0,.211.017h0a2.282,2.282,0,0,1,.788.252l.006,0c.056.03.11.063.163.1l.022.014c.05.033.1.069.145.106l.028.022c.045.037.089.076.132.116a2.292,2.292,0,0,1-1.578,3.956ZM42.127,24.6h.738l-5.038,7.742-.093-.052-.018-.01c-.1-.056-.209-.107-.317-.153l-.069-.028-.065-.027ZM29.791,9.7a2.546,2.546,0,0,1,2.543-2.543h7.117A2.546,2.546,0,0,1,41.993,9.7v3.9c-.091.023-.186.05-.284.084V11.112a2.241,2.241,0,0,0-2.239-2.239H38.139a2.293,2.293,0,0,0-1.448.516l-.131.107a1.057,1.057,0,0,1-1.338,0l-.131-.107a2.293,2.293,0,0,0-1.448-.516H32.313a2.241,2.241,0,0,0-2.239,2.239v2.574c-.1-.034-.192-.062-.284-.084V9.7ZM30.7,17.5a.773.773,0,0,0-.773-.756h-.409a.307.307,0,0,1-.307-.307v-1.2a.3.3,0,0,1,.048-.164,1.883,1.883,0,0,1,.194.04l.067.019.012,0c.031.01.062.021.093.033l.007,0c.028.011.055.023.082.036l.015.007c.024.012.048.025.071.039l.019.012c.022.013.043.028.063.043l.019.014a.831.831,0,0,1,.073.064h0A.967.967,0,0,0,31.62,14.7V11.112a.693.693,0,0,1,.692-.693h1.332a.743.743,0,0,1,.469.167l.131.107a2.6,2.6,0,0,0,3.3,0l.131-.107a.743.743,0,0,1,.469-.167h1.332a.693.693,0,0,1,.693.693V14.7a.965.965,0,0,0,1.567.757.78.78,0,0,0,.08-.068.811.811,0,0,1,.071-.062l.019-.015q.03-.022.061-.042l.018-.012q.038-.023.078-.043l.029-.014.051-.023.04-.016.035-.013a1.808,1.808,0,0,1,.312-.078.3.3,0,0,1,.048.165v1.2a.307.307,0,0,1-.307.307H41.86a.773.773,0,0,0-.773.756,4.781,4.781,0,0,1-1.614,3.533,5.936,5.936,0,0,1-1.066.736l-.015.008a5.248,5.248,0,0,1-5.059-.031c-.018-.011-.036-.022-.054-.031a5.987,5.987,0,0,1-.967-.681A4.782,4.782,0,0,1,30.7,17.5Zm7.815,6.448a3.85,3.85,0,0,1-2.606,1.031h-.012a3.85,3.85,0,0,1-2.677-1.087,2.512,2.512,0,0,0,.234-.39,6.985,6.985,0,0,0,2.432.454H35.9a7,7,0,0,0,2.35-.424A2.5,2.5,0,0,0,38.513,23.945Zm-6.751.654.142.156a5.4,5.4,0,0,0,3.991,1.767h.017a5.4,5.4,0,0,0,4-1.792l.118-.132h.256L35.89,31.348,31.5,24.6Zm-2.108,0,4.863,7.474-.073.03-.057.023q-.164.07-.321.155l-.007,0-.1.058L28.916,24.6ZM12.772,6.691a2.263,2.263,0,0,1,1.81-.893,2.762,2.762,0,0,1,2.662,2.039l2.812,10.418-4.587,1.854L12.381,8.671A2.262,2.262,0,0,1,12.772,6.691Z" transform="translate(-9.652 0)" fill="#4360fd" stroke="#4360fd" stroke-width="2"/>
    <path id="Path_9342" data-name="Path 9342" d="M66.421,13.132a3.216,3.216,0,0,0-2.429-1.337c-.065,0-.13-.006-.194-.006a3.233,3.233,0,0,0-3.116,2.387L57.709,25.191A7.324,7.324,0,0,1,50.651,30.6H46.3a1.624,1.624,0,0,1-.759-1.354v-2.8H39.7v2.8a1.624,1.624,0,0,1-.759,1.354h-4.2a7.324,7.324,0,0,1-7.058-5.405L24.763,14.406a3.536,3.536,0,0,0-3.408-2.61,3.052,3.052,0,0,0-2.947,3.848l4.825,17.875a8.952,8.952,0,0,0,3.247,4.83,15.8,15.8,0,0,1,5.876,9.586l1.309,6.691a2.117,2.117,0,0,0,2.074,1.707H49.645a2.117,2.117,0,0,0,2.074-1.707l1.308-6.691A15.8,15.8,0,0,1,58.9,38.349a8.95,8.95,0,0,0,3.247-4.83L66.917,15.86A3.216,3.216,0,0,0,66.421,13.132Z" transform="translate(-16.425 -6.771)" fill="#fed9a8"/>
    <path id="Path_9344" data-name="Path 9344" d="M197.09,36.013h-.407v-1.62a5.565,5.565,0,0,0-1.884-4.228,6.113,6.113,0,0,0-8.17,0,5.565,5.565,0,0,0-1.884,4.228v1.62h-.407a1.08,1.08,0,0,0-1.08,1.08v1.2a1.08,1.08,0,0,0,1.08,1.08h.409a5.554,5.554,0,0,0,1.883,4.1,6.113,6.113,0,0,0,8.17,0,5.554,5.554,0,0,0,1.883-4.1h.409a1.08,1.08,0,0,0,1.08-1.08v-1.2A1.08,1.08,0,0,0,197.09,36.013Z" transform="translate(-164.473 -21.858)" fill="#fed9a8"/>
    <path id="Path_9346" data-name="Path 9346" d="M199.37,25.13h-7.117a3.316,3.316,0,0,0-3.316,3.316v4.575a2.289,2.289,0,0,1,1.5.56.194.194,0,0,0,.33-.139V29.856a1.466,1.466,0,0,1,1.466-1.466h1.332a1.514,1.514,0,0,1,.958.342l.131.107a1.83,1.83,0,0,0,2.317,0l.131-.107a1.514,1.514,0,0,1,.958-.342h1.332a1.466,1.466,0,0,1,1.466,1.466v3.586a.194.194,0,0,0,.33.139,2.29,2.29,0,0,1,1.5-.56V28.446A3.316,3.316,0,0,0,199.37,25.13Z" transform="translate(-169.571 -18.744)" fill="#4360fd"/>
    <path id="SVGCleanerId_0" d="M87.58,145.4a7.324,7.324,0,0,1-6.967,5.095h-4.2l-.348.389a4.617,4.617,0,0,1-6.856.021l-.372-.41H64.695a7.324,7.324,0,0,1-6.973-5.113l-6.037,2.441,1.51,5.595a8.952,8.952,0,0,0,3.247,4.83c3.032,2.308,5.119,9.712,5.876,13.586l1.309,2.691a2.117,2.117,0,0,0,2.074,1.707H79.607a2.113,2.113,0,0,0,2.073-1.707l1.309-2.691c.757-3.874,2.844-11.278,5.876-13.586a8.95,8.95,0,0,0,3.247-4.83l1.505-5.575Z" transform="translate(-46.387 -126.674)" fill="#4360fd"/>
    <path id="Path_9349" data-name="Path 9349" d="M57.863,373.187c-16.723-6.853-33.387,8.434-50.111,1.24a.368.368,0,0,1-.194-.477q.692-1.707,1.365-3.422a.37.37,0,0,0,.01-.241q-.65-2.183-1.29-4.369a.37.37,0,0,1,.493-.447c16.723,6.853,33.387-8.434,50.111-1.24a.368.368,0,0,1,.194.477q-.692,1.707-1.365,3.422a.37.37,0,0,0-.01.241q.65,2.183,1.29,4.369A.37.37,0,0,1,57.863,373.187Z" transform="translate(-6.76 -321.315)" fill="#ffda0b"/>
    <path id="Path_9352" data-name="Path 9352" d="M250.853,181.876v-.021a6.157,6.157,0,0,1-2.872.73,6.43,6.43,0,0,1-.916-.076v2.1a1.545,1.545,0,0,0,.077.468,4.609,4.609,0,0,0,4.279-1.457l.348-.389h-.157A1.624,1.624,0,0,1,250.853,181.876Z" transform="translate(-221.741 -159.405)" fill="#f4c28c"/>
    <path id="Path_9353" data-name="Path 9353" d="M51.793,356.8c-8.665-3.727-17.345-1.579-25.739.5a79.768,79.768,0,0,1-12.3,2.374,25.61,25.61,0,0,1-12.08-1.639,1.143,1.143,0,0,0-1.528,1.38c.414,1.413.835,2.839,1.251,4.239-.436,1.11-.877,2.214-1.311,3.285a1.147,1.147,0,0,0,.6,1.477,25.642,25.642,0,0,0,10.3,2.033c5.2,0,10.372-1.279,15.434-2.532a79.768,79.768,0,0,1,12.3-2.374,25.609,25.609,0,0,1,12.08,1.639,1.143,1.143,0,0,0,1.528-1.38c-.412-1.407-.833-2.832-1.251-4.239.437-1.111.878-2.216,1.311-3.285A1.147,1.147,0,0,0,51.793,356.8Zm-.4,8.95Zm-1.8-4.624a1.148,1.148,0,0,0-.031.744c.353,1.186.708,2.387,1.058,3.578-8.274-3.067-16.554-1.017-24.569.967A78.468,78.468,0,0,1,13.562,368.8a25.152,25.152,0,0,1-11.9-1.655c.4-1,.814-2.029,1.218-3.06a1.149,1.149,0,0,0,.032-.744c-.352-1.181-.707-2.382-1.058-3.578a25.951,25.951,0,0,0,9.134,1.565c5.2,0,10.373-1.279,15.435-2.532a78.477,78.477,0,0,1,12.492-2.389,25.157,25.157,0,0,1,11.9,1.655C50.412,359.066,50,360.094,49.6,361.126Z" transform="translate(0 -314.593)" fill="#4360fd"/>
    <path id="Path_9351" data-name="Path 9351" d="M190.319,195.122h-2.17l-5.818,8.94-5.817-8.94H174.4c-.161,0-.321-.007-.481-.017l7.5,11.532a1.082,1.082,0,0,0,1.814,0l7.5-11.529C190.6,195.117,190.46,195.122,190.319,195.122Z" transform="translate(-156.093 -171.297)" fill="#e1effb"/>
    <circle id="Ellipse_195" data-name="Ellipse 195" cx="3.067" cy="3.067" r="3.067" transform="translate(23.173 32.591)" fill="#ffda0b"/>
  </g>
</svg>
