<svg xmlns="http://www.w3.org/2000/svg" width="61.2" height="55.177" viewBox="0 0 61.2 55.177">
  <g id="Group_4269" data-name="Group 4269" transform="translate(-16194.4 -4339.81)">
    <g id="Rectangle_1131" data-name="Rectangle 1131" transform="translate(16196 4341.41)" fill="#fff" stroke="#425efa" stroke-width="1.6">
      <rect width="58" height="46.6" rx="4" stroke="none"/>
      <rect x="-0.8" y="-0.8" width="59.6" height="48.2" rx="4.8" fill="none"/>
    </g>
    <g id="Page-1" transform="translate(16196 4342)">
      <g id="_016---Certificate" data-name="016---Certificate">
        <g id="Rectangle-path" fill="#42c0fa">
          <path d="M 53.75 41.75 L 53 41.75 L 5 41.75 L 4.25 41.75 L 4.25 41 L 4.25 5 L 4.25 4.25 L 5 4.25 L 53 4.25 L 53.75 4.25 L 53.75 5 L 53.75 41 L 53.75 41.75 Z" stroke="none"/>
          <path d="M 5 5 L 5 41 L 53 41 L 53 5 L 5 5 M 3.5 3.5 L 5 3.5 L 53 3.5 L 54.5 3.5 L 54.5 5 L 54.5 41 L 54.5 42.5 L 53 42.5 L 5 42.5 L 3.5 42.5 L 3.5 41 L 3.5 5 L 3.5 3.5 Z" stroke="none" fill="#425efa"/>
        </g>
        <path id="Shape" d="M36,12H22a1,1,0,0,1,0-2H36a1,1,0,0,1,0,2Z" fill="#fff"/>
        <path id="Shape-2" data-name="Shape" d="M26,34H12a1,1,0,0,1,0-2H26a1,1,0,0,1,0,2Z" fill="#fff"/>
        <path id="Shape-3" data-name="Shape" d="M39,17H19a1,1,0,0,1,0-2H39a1,1,0,0,1,0,2Z" fill="#fff"/>
        <g id="Shape-4" data-name="Shape" fill="#ffda0b">
          <path d="M 42.99996948242188 52.18699264526367 C 42.72005844116211 52.18698120117188 42.43996810913086 52.12039184570312 42.18997955322266 51.99441146850586 L 39.59383392333984 50.68635940551758 C 39.5643310546875 50.67220306396484 39.53277969360352 50.66502380371094 39.5 50.66502380371094 C 39.46722030639648 50.66502380371094 39.4356689453125 50.67220306396484 39.40616607666016 50.68635940551758 L 36.80997085571289 51.99444198608398 C 36.56002044677734 52.12040328979492 36.27993011474609 52.18699264526367 36.00001907348633 52.18699264526367 C 35.66424179077148 52.18699264526367 35.33597946166992 52.09339141845703 35.05070877075195 51.91633224487305 C 34.52260971069336 51.58854293823242 34.19687652587891 50.99923324584961 34.20000076293945 50.37779998779297 L 34.19998168945312 37.40000152587891 L 34.19998168945312 36.60000228881836 L 34.99998092651367 36.60000228881836 L 44.00001907348633 36.60000228881836 L 44.80001831054688 36.60000228881836 L 44.80001831054688 37.40000152587891 L 44.79999923706055 50.37779998779297 C 44.80312347412109 50.99923324584961 44.47739028930664 51.58854293823242 43.94927978515625 51.91633224487305 C 43.66402053833008 52.09339141845703 43.33575057983398 52.18699264526367 42.99996948242188 52.18699264526367 Z" stroke="none"/>
          <path d="M 34.99998092651367 37.40000152587891 L 35 50.38000106811523 C 34.9975700378418 50.72837066650391 35.17662048339844 51.05290222167969 35.47261047363281 51.23662185668945 C 35.63358306884766 51.33654022216797 35.81657791137695 51.38698959350586 36.00002288818359 51.38698959350586 C 36.15390014648438 51.38698959350586 36.30807876586914 51.35152053833008 36.45000076293945 51.28000259399414 L 39.04999923706055 49.97000122070312 C 39.19184112548828 49.90001678466797 39.34592056274414 49.86502456665039 39.5 49.86502456665039 C 39.65407943725586 49.86502456665039 39.80815887451172 49.90001678466797 39.95000076293945 49.97000122070312 L 42.54999923706055 51.28000259399414 C 42.69190216064453 51.35151290893555 42.84611892700195 51.38698959350586 42.99997711181641 51.38698959350586 C 43.18344497680664 51.38698959350586 43.36640167236328 51.33655166625977 43.52738952636719 51.23662185668945 C 43.82337951660156 51.05290222167969 44.0024299621582 50.72837066650391 44 50.38000106811523 L 44.00001907348633 37.40000152587891 L 34.99998092651367 37.40000152587891 M 33.39997863769531 35.80000305175781 L 34.99998092651367 35.80000305175781 L 44.00001907348633 35.80000305175781 L 45.60002136230469 35.80000305175781 L 45.60002136230469 37.40000152587891 L 45.59999847412109 50.37611389160156 C 45.60369873046875 51.27288818359375 45.13333892822266 52.12296676635742 44.37118148803711 52.59604263305664 C 43.95914840698242 52.85180282592773 43.48498916625977 52.98699188232422 42.99998092651367 52.98699188232422 C 42.59564971923828 52.98699188232422 42.19105911254883 52.89080047607422 41.82994842529297 52.70882034301758 L 39.5 51.53488540649414 L 37.16992950439453 52.70888137817383 C 36.80894088745117 52.89080047607422 36.40435028076172 52.98699188232422 36.00001907348633 52.98699188232422 C 35.51499938964844 52.98699188232422 35.04084014892578 52.85179138183594 34.62878036499023 52.59602355957031 C 33.86666107177734 52.12296676635742 33.39630126953125 51.27288818359375 33.40000152587891 50.37611389160156 L 33.39997863769531 37.40000152587891 L 33.39997863769531 35.80000305175781 Z" stroke="none" fill="#425efa"/>
        </g>
        <path id="Shape-5" data-name="Shape" d="M26,30a14.233,14.233,0,0,1-6.989-1.834A14.066,14.066,0,0,1,12,30a1,1,0,0,1,0-2,12.121,12.121,0,0,0,5.188-1.141,4.749,4.749,0,0,1-1.835-3.285c0-.6.263-2.574,3.647-2.574s3.647,1.97,3.647,2.574a4.759,4.759,0,0,1-1.834,3.291A12.16,12.16,0,0,0,26,28a1,1,0,0,1,0,2Zm-7-7c-.76,0-1.647.15-1.647.574s.449,1.278,1.639,2.194c1.064-.814,1.655-1.665,1.655-2.194C20.647,23.15,19.76,23,19,23Z" fill="#fff"/>
        <g id="Shape-6" data-name="Shape" fill="#ffda0b">
          <path d="M 39.5 40.79999923706055 C 38.44942092895508 40.79999923706055 37.7842903137207 39.90966033935547 37.19746017456055 39.12411880493164 C 36.91231918334961 38.742431640625 36.55744934082031 38.26741027832031 36.322509765625 38.16996002197266 C 36.26562118530273 38.14635848999023 36.15266036987305 38.11825180053711 35.93732070922852 38.11825180053711 C 35.65433120727539 38.11825180053711 35.31748962402344 38.16532135009766 34.96088027954102 38.21514129638672 C 34.56705093383789 38.27016830444336 34.15982055664062 38.32706832885742 33.76789855957031 38.32706832885742 C 33.09016036987305 38.32707977294922 32.5826416015625 38.14900970458984 32.21630859375 37.78268814086914 C 31.50015068054199 37.06652069091797 31.65105056762695 35.98838043212891 31.78418922424316 35.03715133666992 C 31.85272026062012 34.54750061035156 31.93800926208496 33.9381217956543 31.82991027832031 33.67716979980469 C 31.73258972167969 33.44255065917969 31.25757026672363 33.08768081665039 30.87587928771973 32.80253982543945 C 30.09033966064453 32.2157096862793 29.20000076293945 31.55057907104492 29.20000076293945 30.5 C 29.20000076293945 29.44942092895508 30.09033966064453 28.7842903137207 30.87587928771973 28.19746017456055 C 31.25757026672363 27.91231918334961 31.73258972167969 27.55744934082031 31.83003997802734 27.322509765625 C 31.93855094909668 27.06090927124023 31.85333061218262 26.45096969604492 31.78484916687012 25.96088027954102 C 31.65199089050293 25.00999069213867 31.50140953063965 23.93222045898438 32.21731185913086 23.21631050109863 C 32.58361053466797 22.85001945495605 33.09106063842773 22.67194938659668 33.76863861083984 22.67194938659668 C 34.16099166870117 22.67194938659668 34.56861877441406 22.7290096282959 34.96282958984375 22.7841796875 C 35.31956100463867 22.83411026000977 35.65650177001953 22.88128089904785 35.93939971923828 22.88128089904785 C 36.1538200378418 22.88128089904785 36.26625823974609 22.85334014892578 36.32283020019531 22.82991027832031 C 36.555419921875 22.73315048217773 36.90996170043945 22.25884056091309 37.19483947753906 21.87771987915039 C 37.78264999389648 21.0913200378418 38.44889831542969 20.20000076293945 39.5 20.20000076293945 C 40.55057907104492 20.20000076293945 41.2157096862793 21.09033966064453 41.80253982543945 21.87587928771973 C 42.08768081665039 22.25757026672363 42.44255065917969 22.73258972167969 42.677490234375 22.83003997802734 C 42.73437881469727 22.85363960266113 42.84733963012695 22.88175010681152 43.06267929077148 22.88175010681152 C 43.34566879272461 22.88175010681152 43.68249893188477 22.83468055725098 44.03910827636719 22.78486061096191 C 44.43294143676758 22.72982978820801 44.84017944335938 22.67292976379395 45.23210906982422 22.67292976379395 C 45.90983963012695 22.67292976379395 46.4173698425293 22.85099983215332 46.78369140625 23.21730995178223 C 47.49985122680664 23.93347930908203 47.34894943237305 25.01161956787109 47.2158088684082 25.96285057067871 C 47.14728164672852 26.45249938964844 47.06198883056641 27.06188011169434 47.17008972167969 27.32283020019531 C 47.26741027832031 27.55744934082031 47.742431640625 27.91231918334961 48.12411880493164 28.19746017456055 C 48.90966033935547 28.7842903137207 49.79999923706055 29.44942092895508 49.79999923706055 30.5 C 49.79999923706055 31.55057907104492 48.90966033935547 32.2157096862793 48.12411880493164 32.80253982543945 C 47.742431640625 33.08768081665039 47.26741027832031 33.44255065917969 47.16996002197266 33.677490234375 C 47.06145095825195 33.93909072875977 47.14667129516602 34.54903030395508 47.21514892578125 35.03911972045898 C 47.3480110168457 35.99000930786133 47.49858856201172 37.06777954101562 46.78268814086914 37.78369140625 C 46.41638946533203 38.14997863769531 45.90893936157227 38.32804870605469 45.23136138916016 38.32804870605469 C 44.83900833129883 38.32804870605469 44.43138122558594 38.27098846435547 44.03717041015625 38.2158203125 C 43.68043899536133 38.16588973999023 43.34349822998047 38.11872100830078 43.06060028076172 38.11872100830078 C 42.8461799621582 38.11872100830078 42.73374176025391 38.14665985107422 42.67716979980469 38.17008972167969 C 42.44255065917969 38.26741027832031 42.08768081665039 38.742431640625 41.80253982543945 39.12411880493164 C 41.2157096862793 39.90966033935547 40.55057907104492 40.79999923706055 39.5 40.79999923706055 Z" stroke="none"/>
          <path d="M 39.5 21 C 38.34700012207031 21 37.62900161743164 23.15299987792969 36.62900161743164 23.56900024414062 C 36.43013000488281 23.65138244628906 36.19504928588867 23.6812744140625 35.93939590454102 23.6812744140625 C 35.26284027099609 23.6812744140625 34.44255828857422 23.47190475463867 33.76863861083984 23.47195434570312 C 33.36803436279297 23.47198104858398 33.01898956298828 23.5460090637207 32.78300094604492 23.78200149536133 C 32 24.56499862670898 33 26.59000015258789 32.56900024414062 27.62900161743164 C 32.15299987792969 28.63199996948242 30 29.34700012207031 30 30.5 C 30 31.65299987792969 32.15299987792969 32.36800003051758 32.56900024414062 33.37100219726562 C 32.99900054931641 34.40900039672852 31.99900054931641 36.43399810791016 32.78200149536133 37.21699905395508 C 33.01808547973633 37.45308685302734 33.3670539855957 37.52707290649414 33.76788711547852 37.52707290649414 C 34.44127655029297 37.52707290649414 35.2608757019043 37.31825256347656 35.93731689453125 37.31825256347656 C 36.19366455078125 37.31825256347656 36.42955780029297 37.3482666015625 36.62900161743164 37.43099975585938 C 37.63199996948242 37.84700012207031 38.34700012207031 40 39.5 40 C 40.65299987792969 40 41.36800003051758 37.84700012207031 42.37099838256836 37.43099975585938 C 42.56986999511719 37.34861755371094 42.80495071411133 37.3187255859375 43.06060409545898 37.3187255859375 C 43.73715972900391 37.3187255859375 44.55744171142578 37.52804565429688 45.23136138916016 37.52804565429688 C 45.63196563720703 37.52804565429688 45.98101043701172 37.45398712158203 46.21699905395508 37.21800231933594 C 47 36.43499755859375 46 34.40999984741211 46.43099975585938 33.37100219726562 C 46.84700012207031 32.36800003051758 49 31.65299987792969 49 30.5 C 49 29.34700012207031 46.84700012207031 28.63199996948242 46.43099975585938 27.62900161743164 C 46.00099945068359 26.59099960327148 47.00099945068359 24.56600189208984 46.21799850463867 23.78300094604492 C 45.98191452026367 23.54691314697266 45.6329460144043 23.47292709350586 45.23211288452148 23.47292709350586 C 44.55872344970703 23.47292709350586 43.7391242980957 23.68174743652344 43.06268310546875 23.68174743652344 C 42.80633544921875 23.68174743652344 42.57044219970703 23.6517333984375 42.37099838256836 23.56900024414062 C 41.36800003051758 23.15299987792969 40.65299987792969 21 39.5 21 M 39.5 19.40000152587891 C 40.95153045654297 19.40000152587891 41.8138313293457 20.55427169799805 42.44345092773438 21.39709091186523 C 42.61003112792969 21.62007522583008 42.85170745849609 21.94358062744141 42.99660491943359 22.08024215698242 C 43.01434707641602 22.08112716674805 43.03621292114258 22.08174896240234 43.06267929077148 22.08174896240234 C 43.2900390625 22.08174896240234 43.61455917358398 22.03641128540039 43.92839813232422 21.99256134033203 C 44.34931182861328 21.93373870849609 44.78456115722656 21.87292861938477 45.23210906982422 21.87292861938477 C 46.12031173706055 21.87292861938477 46.83266067504883 22.13491821289062 47.34936904907227 22.65163040161133 C 48.34737014770508 23.64963150024414 48.15127944946289 25.05070877075195 48.00808715820312 26.07373809814453 C 47.96697998046875 26.36747741699219 47.90712738037109 26.79507446289062 47.918701171875 27.00226974487305 C 48.05472946166992 27.14703750610352 48.37933731079102 27.38953018188477 48.60290908813477 27.55654907226562 C 49.44573211669922 28.1861686706543 50.59999847412109 29.04846954345703 50.59999847412109 30.5 C 50.59999847412109 31.95153045654297 49.44573211669922 32.81382751464844 48.60290908813477 33.44345092773438 C 48.37911987304688 33.61063385009766 48.05410003662109 33.85343170166016 47.91830444335938 33.99814987182617 C 47.90641021728516 34.20527648925781 47.96631622314453 34.63401794433594 48.00745010375977 34.92842102050781 C 48.15033721923828 35.95109939575195 48.34603881835938 37.35170745849609 47.34836959838867 38.34936904907227 C 46.83168029785156 38.86605834960938 46.11941146850586 39.1280517578125 45.23136138916016 39.1280517578125 C 44.78329849243164 39.1280517578125 44.34761047363281 39.06707000732422 43.92626953125 39.00808715820312 C 43.61236953735352 38.96414947509766 43.28778076171875 38.91872024536133 43.06060028076172 38.91872024536133 C 43.03490829467773 38.91872024536133 43.01358413696289 38.91930770874023 42.99618530273438 38.92015075683594 C 42.85124206542969 39.05704116821289 42.60987091064453 39.38014221191406 42.44345092773438 39.60290908813477 C 41.8138313293457 40.44573211669922 40.95153045654297 41.59999847412109 39.5 41.59999847412109 C 38.04846954345703 41.59999847412109 37.1861686706543 40.44573211669922 36.55654907226562 39.60290908813477 C 36.38996887207031 39.37992477416992 36.14829254150391 39.05641937255859 36.00339508056641 38.91976165771484 C 35.98565292358398 38.91886901855469 35.96378707885742 38.91825103759766 35.93732070922852 38.91825103759766 C 35.7099609375 38.91825103759766 35.38544082641602 38.96359252929688 35.07160186767578 39.00743865966797 C 34.65068817138672 39.06626129150391 34.21543884277344 39.12706756591797 33.76789093017578 39.12706756591797 C 32.87968826293945 39.12706756591797 32.16733932495117 38.86508178710938 31.65063095092773 38.34836959838867 C 30.65262985229492 37.35037231445312 30.84872055053711 35.94928741455078 30.99190902709961 34.92626190185547 C 31.03302001953125 34.63252258300781 31.09287261962891 34.20492553710938 31.081298828125 33.99773025512695 C 30.94527053833008 33.85296249389648 30.62066268920898 33.61046981811523 30.39709091186523 33.44345092773438 C 29.55427169799805 32.81382751464844 28.40000152587891 31.95153045654297 28.40000152587891 30.5 C 28.40000152587891 29.04846954345703 29.55427169799805 28.1861686706543 30.39709091186523 27.55654907226562 C 30.62087631225586 27.38936996459961 30.94589996337891 27.14656829833984 31.08169555664062 27.00185012817383 C 31.09358978271484 26.79471969604492 31.03368377685547 26.36598205566406 30.99254989624023 26.07157897949219 C 30.84965896606445 25.04890060424805 30.65396118164062 23.64828872680664 31.65163040161133 22.65063095092773 C 32.16825866699219 22.13399887084961 32.8804817199707 21.87202072143555 33.76852035522461 21.8719482421875 C 34.21670150756836 21.87192153930664 34.65248107910156 21.93291854858398 35.07389831542969 21.99190902709961 C 35.38774871826172 22.03585052490234 35.7122802734375 22.08127975463867 35.93939971923828 22.08127975463867 C 35.96455001831055 22.08127975463867 35.98551940917969 22.08071899414062 36.00271224975586 22.07989883422852 C 36.14756011962891 21.94258499145508 36.38810348510742 21.62078475952148 36.55406188964844 21.39875030517578 C 37.1845817565918 20.55524063110352 38.04809951782227 19.40000152587891 39.5 19.40000152587891 Z" stroke="none" fill="#425efa"/>
        </g>
        <g id="Oval" transform="translate(36 27)" fill="#fff" stroke="#425efa" stroke-width="1.6">
          <circle cx="3.5" cy="3.5" r="3.5" stroke="none"/>
          <circle cx="3.5" cy="3.5" r="4.3" fill="none"/>
        </g>
      </g>
    </g>
  </g>
</svg>
