<svg xmlns="http://www.w3.org/2000/svg" width="57.418" height="57.422" viewBox="0 0 57.418 57.422">
  <g id="patent" transform="translate(-0.017 -1)">
    <g id="Group_4275" data-name="Group 4275" transform="translate(0.974 1.961)">
      <path id="Path_9355" data-name="Path 9355" d="M53.486,30.534A22.973,22.973,0,0,1,30.519,53.5c-.488,0-.967-.019-1.435-.048a22.964,22.964,0,0,1,0-45.839c.469-.029.947-.048,1.435-.048A22.973,22.973,0,0,1,53.486,30.534Z" transform="translate(-7.552 -7.567)" fill="#0377bc"/>
      <ellipse id="Ellipse_196" data-name="Ellipse 196" cx="21.532" cy="22.919" rx="21.532" ry="22.919" transform="translate(0 0.048)" fill="#fff"/>
      <path id="Path_9356" data-name="Path 9356" d="M244.887,184.293H220.006a3.827,3.827,0,0,1-3.828-3.828V147.928a3.827,3.827,0,0,0-3.828-3.828h24.881a3.827,3.827,0,0,1,3.828,3.828v32.537a3.827,3.827,0,0,0,3.828,3.828Z" transform="translate(-189.383 -128.789)" fill="#ffda0b"/>
      <circle id="Ellipse_197" data-name="Ellipse 197" cx="3.828" cy="3.828" r="3.828" transform="translate(19.139 15.312)" fill="#ffda0b"/>
      <g id="Group_4274" data-name="Group 4274" transform="translate(31.58 20.096)">
        <path id="Path_9358" data-name="Path 9358" d="M311.959,263.568v8.613l-2.871-2.871-2.871,2.871v-8.613Z" transform="translate(-304.303 -254.955)" fill="#ffda0b"/>
        <circle id="Ellipse_198" data-name="Ellipse 198" cx="4.785" cy="4.785" r="4.785" fill="#fff"/>
      </g>
    </g>
    <g id="Group_4276" data-name="Group 4276" transform="translate(0.017 1)">
      <path id="Path_9359" data-name="Path 9359" d="M56.478,56.508a2.874,2.874,0,0,1-2.871-2.871V21.1a4.791,4.791,0,0,0-4.785-4.785H46.253a22.7,22.7,0,0,0-1.6-3.352.871.871,0,0,0-.071-.1A23.962,23.962,0,0,0,24.405,1.016c-.132-.01-.283-.014-.427-.015H23.92c-.155,0-.3,0-.386.013l-.042,0h-.009A23.992,23.992,0,0,0,3.3,12.856a.974.974,0,0,0-.073.108,23.9,23.9,0,0,0,0,23.928A.876.876,0,0,0,3.3,37,23.962,23.962,0,0,0,23.476,48.84c.148.011.306.012.464.012a23.407,23.407,0,0,0,2.871-.194v4.979A4.791,4.791,0,0,0,31.6,58.422H56.478a.957.957,0,0,0,0-1.914ZM27.769,16.315H24.9V14.4h8.247q.252.937.452,1.914ZM4.625,35.455a21.923,21.923,0,0,1-2.663-9.57h9.57a42.9,42.9,0,0,0,1.243,9.57Zm0-21.053h8.15a42.9,42.9,0,0,0-1.243,9.57H1.962A21.912,21.912,0,0,1,4.625,14.4ZM24.9,3.011c3.046.612,5.9,4.13,7.685,9.476H24.9Zm-1.914,0v9.476H15.3C17.084,7.146,19.934,3.628,22.984,3.012Zm0,11.39v2.011A4.793,4.793,0,0,0,19.156,21.1a4.737,4.737,0,0,0,.981,2.871H13.446a40.589,40.589,0,0,1,1.3-9.57Zm3.828,31.652a5.793,5.793,0,0,1-1.914.782V37.369h1.914ZM24.9,35.455V25.788a4.743,4.743,0,0,0,1.914-.885V35.455Zm-11.452-9.57h9.538v9.57H14.746A40.594,40.594,0,0,1,13.446,25.885Zm9.538,11.484v9.476c-3.046-.612-5.9-4.13-7.685-9.476ZM26.812,21.1a2.871,2.871,0,1,1-2.871-2.871A2.871,2.871,0,0,1,26.812,21.1Zm8.736-4.785q-.189-.975-.426-1.914h8.129a20.78,20.78,0,0,1,.925,1.914Zm6.528-3.828H34.588A21.518,21.518,0,0,0,29.772,3.72,22.114,22.114,0,0,1,42.075,12.487ZM18.105,3.726a21.515,21.515,0,0,0-4.811,8.761H5.806A22.1,22.1,0,0,1,18.105,3.726ZM5.806,37.369h7.488a21.521,21.521,0,0,0,4.816,8.767A22.114,22.114,0,0,1,5.806,37.369ZM28.726,53.637V21.1a4.737,4.737,0,0,0-.981-2.871H48.822A2.874,2.874,0,0,1,51.693,21.1V53.637a4.737,4.737,0,0,0,.981,2.871H31.6A2.874,2.874,0,0,1,28.726,53.637Z" transform="translate(-0.017 -1)" fill="#4360fd"/>
      <path id="Path_9360" data-name="Path 9360" d="M274.81,182.229a.952.952,0,0,0,.478-.128l.072-.042a5.783,5.783,0,0,0,.594.61v8.173a.957.957,0,0,0,1.634.677l2.194-2.194,2.194,2.194a.957.957,0,0,0,1.633-.677v-8.173a5.784,5.784,0,0,0,.594-.61l.072.042a.957.957,0,0,0,.957-1.658l-.075-.043a5.683,5.683,0,0,0,.28-1.042h.086a.957.957,0,0,0,0-1.914h-.086a5.671,5.671,0,0,0-.28-1.042l.075-.043a.957.957,0,0,0-.957-1.658l-.072.042a5.782,5.782,0,0,0-.764-.764l.042-.072a.957.957,0,0,0-1.658-.957l-.043.075a5.689,5.689,0,0,0-1.042-.28v-.086a.957.957,0,0,0-1.914,0v.086a5.681,5.681,0,0,0-1.042.28l-.043-.075a.957.957,0,1,0-1.658.957l.042.072a5.783,5.783,0,0,0-.764.764l-.072-.042a.957.957,0,0,0-.957,1.658l.075.043a5.683,5.683,0,0,0-.28,1.042h-.086a.957.957,0,1,0,0,1.914h.086a5.674,5.674,0,0,0,.28,1.042l-.075.043a.957.957,0,0,0,.48,1.786Zm4.972-7.656a3.828,3.828,0,1,1-3.828,3.828A3.828,3.828,0,0,1,279.782,174.573Zm1.914,13.958-1.237-1.237a.956.956,0,0,0-1.353,0l-1.237,1.237v-4.724a5.635,5.635,0,0,0,3.828,0Z" transform="translate(-242.46 -152.559)" fill="#4360fd"/>
      <path id="Union_18" data-name="Union 18" d="M-15316.043-3871.43a.957.957,0,0,1-.957-.957.955.955,0,0,1,.957-.957h13.4a.955.955,0,0,1,.957.957.957.957,0,0,1-.957.957Zm0-3.829a.955.955,0,0,1-.957-.957.957.957,0,0,1,.957-.957h13.4a.957.957,0,0,1,.957.957.955.955,0,0,1-.957.957Zm0-3.829a.948.948,0,0,1-.677-.281.948.948,0,0,1-.28-.677.954.954,0,0,1,.28-.677.964.964,0,0,1,.677-.281h13.4a.957.957,0,0,1,.957.957.955.955,0,0,1-.957.957Z" transform="translate(15349.537 3923.11)" fill="#4360fd"/>
      <path id="Path_9364" data-name="Path 9364" d="M205.1,173.432a.988.988,0,0,0,.679.278,1.009,1.009,0,0,0,.679-.278,1.106,1.106,0,0,0,.2-.316.9.9,0,0,0,0-.727.984.984,0,0,0-.2-.315,1,1,0,0,0-1.359,0,.983.983,0,0,0-.2.315.9.9,0,0,0,0,.727A1.1,1.1,0,0,0,205.1,173.432Z" transform="translate(-181.85 -152.652)" fill="#4360fd"/>
    </g>
  </g>
</svg>
