<svg id="XMLID_1088_" xmlns="http://www.w3.org/2000/svg" width="49.068" height="49.068" viewBox="0 0 49.068 49.068">
  <g id="XMLID_1190_" transform="translate(2.492 2.715)">
    <g id="XMLID_2156_" transform="translate(8.625 18.56)">
      <path id="XMLID_2127_" d="M237.917,436.9A3.467,3.467,0,0,1,236,433.8V430h3.833v3.8A3.467,3.467,0,0,1,237.917,436.9Z" transform="translate(-224.5 -410.066)" fill="#ffda0b"/>
      <path id="XMLID_2073_" d="M0,0H3.833V15.334H0Z" transform="translate(3.833 26.834) rotate(180)" fill="#fff"/>
      <path id="XMLID_2070_" d="M356,342h3.833v15.334H356Z" transform="translate(-332.999 -330.5)" fill="#fff"/>
      <path id="XMLID_2069_" d="M171.334,235.8v-9.967H167.5V222h-3.833v3.833h-3.833V235.8H156V245h3.833v-3.067h11.5V245h3.833v-9.2Z" transform="translate(-152.167 -222)" fill="#4360fd"/>
      <path id="XMLID_2154_" d="M236,390h3.833v3.833H236Z" transform="translate(-224.5 -373.9)" fill="#fff"/>
    </g>
    <g id="Group_4053" data-name="Group 4053">
      <path id="XMLID_1287_" d="M95.667,32.55H88V29.7l1.366-1.366H94.3L95.667,29.7Z" transform="translate(-82.058 -28.333)" fill="#ffda0b"/>
      <path id="XMLID_1268_" d="M413.667,126.884H406v-2.851l1.366-1.366H412.3l1.366,1.366Z" transform="translate(-369.582 -113.626)" fill="#ffda0b"/>
      <path id="XMLID_1207_" d="M33.667,192.217H26v-2.851L27.366,188H32.3l1.366,1.366Z" transform="translate(-26 -172.698)" fill="#ffda0b"/>
    </g>
  </g>
  <g id="XMLID_654_">
    <path id="XMLID_794_" d="M133.792,187.334h-3.833a.958.958,0,0,0-.958.958v1.342h-1.917v-9.009a.958.958,0,0,0-.958-.958H123.25v-2.875a.958.958,0,0,0-.958-.958h-.958v-2.875a.958.958,0,0,0-1.917,0v2.875h-.958a.958.958,0,0,0-.958.958v2.875h-2.875a.958.958,0,0,0-.958.958v9.009H111.75v-1.342a.958.958,0,0,0-.958-.958h-3.833a.958.958,0,0,0-.958.958v15.334a.958.958,0,0,0,.958.958h3.833a.958.958,0,0,0,.958-.958v-2.875h2.875a.958.958,0,0,0,.958-.958v-2.108H117.5v2.841a4.4,4.4,0,0,0,2.446,3.958.958.958,0,0,0,.857,0,4.4,4.4,0,0,0,2.447-3.958v-2.841h1.917v2.108a.958.958,0,0,0,.958.958H129v2.875a.958.958,0,0,0,.958.958h3.833a.958.958,0,0,0,.958-.958v-3.354a.958.958,0,0,0-1.917,0v2.4h-1.917V189.25h1.917v11.4a.958.958,0,0,0,1.917,0V188.292a.958.958,0,0,0-.958-.958Zm-23.959,15.334h-1.917V189.25h1.917Zm11.5-6.9h-1.917V193.85h1.917Zm0,4.757a2.493,2.493,0,0,1-.958,1.974,2.493,2.493,0,0,1-.958-1.974v-2.841h1.917Zm5.75-1.691v-2.108a.958.958,0,0,0-.958-.958H123.25v-2.875a.958.958,0,0,0-.958-.958h-3.833a.958.958,0,0,0-.958.958v2.875h-2.875a.958.958,0,0,0-.958.958v2.108H111.75V191.55h2.875a.958.958,0,0,0,.958-.958v-9.009h2.875a.958.958,0,0,0,.958-.958V177.75h1.917v2.875a.958.958,0,0,0,.958.958h2.875v9.009a.958.958,0,0,0,.958.958H129v7.284Z" transform="translate(-95.841 -155.516)" fill="#4360fd"/>
    <path id="XMLID_801_" d="M246.958,91.75a.958.958,0,0,0,.958-.958V86.958a.958.958,0,0,0-1.917,0v3.833A.958.958,0,0,0,246.958,91.75Z" transform="translate(-222.424 -77.758)" fill="#ff8900"/>
    <path id="XMLID_802_" d="M246.958,5.75a.958.958,0,0,0,.958-.958V.958a.958.958,0,0,0-1.917,0V4.792A.958.958,0,0,0,246.958,5.75Z" transform="translate(-222.424)" fill="#ff8900"/>
    <path id="XMLID_805_" d="M62.958,7.89h.575V9.232a.958.958,0,1,0,1.917,0V7.89h1.917V9.232a.958.958,0,0,0,1.917,0V7.89H71.2V9.232a.958.958,0,0,0,1.917,0V7.89h.575a.958.958,0,0,0,0-1.917h-.575V4.081a.958.958,0,0,0-.281-.678L71.471,2.038a.958.958,0,0,0-.678-.281H69.284v-.8a.958.958,0,0,0-1.917,0v.8H65.857a.958.958,0,0,0-.678.281L63.814,3.4a.958.958,0,0,0-.281.678V5.974h-.575a.958.958,0,1,0,0,1.917ZM65.45,4.478l.8-.8H70.4l.8.8v1.5H65.45Z" transform="translate(-56.058)" fill="#4360fd"/>
    <path id="XMLID_1012_" d="M391.692,100.307h-.575V98.414a.958.958,0,0,0-.281-.678l-1.366-1.366a.958.958,0,0,0-.678-.281h-1.509v-.8a.958.958,0,0,0-1.917,0v.8h-1.509a.959.959,0,0,0-.678.281l-1.366,1.366a.958.958,0,0,0-.281.678v1.893h-.575a.958.958,0,1,0,0,1.917h.575v1.342a.958.958,0,1,0,1.917,0v-1.342h1.917v1.342a.958.958,0,1,0,1.917,0v-1.342H389.2v1.342a.958.958,0,1,0,1.917,0v-1.342h.575a.958.958,0,1,0,0-1.917Zm-8.242-1.5.8-.8H388.4l.8.8v1.5h-5.75Z" transform="translate(-343.582 -85.293)" fill="#4360fd"/>
    <path id="XMLID_1036_" d="M11.117,168.9v-1.342h.575a.958.958,0,1,0,0-1.917h-.575v-1.893a.958.958,0,0,0-.281-.678L9.471,161.7a.958.958,0,0,0-.678-.281H7.284v-.8a.958.958,0,1,0-1.917,0v.8H3.857a.958.958,0,0,0-.678.281L1.814,163.07a.958.958,0,0,0-.281.678v1.893H.958a.958.958,0,1,0,0,1.917h.575V168.9a.958.958,0,1,0,1.917,0v-1.342H5.367V168.9a.958.958,0,1,0,1.917,0v-1.342H9.2V168.9a.958.958,0,1,0,1.917,0ZM3.45,164.145l.8-.8H8.4l.8.8v1.5H3.45Z" transform="translate(0 -144.365)" fill="#4360fd"/>
  </g>
</svg>
