<svg xmlns="http://www.w3.org/2000/svg" width="43.047" height="48.123" viewBox="0 0 43.047 48.123">
  <g id="Group_4219" data-name="Group 4219" transform="translate(-305.072 -999)">
    <path id="playstore" d="M10.9,48.745a6.974,6.974,0,0,1-4.149.655L29.023,27.344l6.988,6.988L10.9,48.745Z" transform="translate(302.909 997.642)" fill="#fd4343"/>
    <path id="playstore-2" data-name="playstore" d="M42.887,30.272,38.3,32.892l-7.643-7.425L38.3,17.825l4.367,2.62a5.776,5.776,0,0,1,2.839,5.023,5.267,5.267,0,0,1-2.62,4.8Z" transform="translate(302.584 997.771)" fill="#ffda0b"/>
    <path id="playstore-3" data-name="playstore" d="M10.892,1.873,36.223,16.5,29.017,23.71,6.306,1.218C6.743,1.218,7.4,1,7.835,1A5.014,5.014,0,0,1,10.892,1.873Z" transform="translate(302.915 998)" fill="#46de60"/>
    <path id="playstore-4" data-name="playstore" d="M2.1,43.382V6.7A5.7,5.7,0,0,1,4.284,2.328L27.213,25.257,4.5,47.968A5.7,5.7,0,0,1,2.1,43.382Z" transform="translate(302.973 997.982)" fill="#42c0fa"/>
  </g>
</svg>
